<?xml version="1.0" encoding="utf-8"?>
<!-- Svg Vector Icons : http://www.onlinewebfonts.com/icon -->
<!DOCTYPE svg PUBLIC "-//W3C//DTD SVG 1.1//EN" "http://www.w3.org/Graphics/SVG/1.1/DTD/svg11.dtd">
<svg version="1.1" xmlns="http://www.w3.org/2000/svg" xmlns:xlink="http://www.w3.org/1999/xlink" x="0px" y="0px" viewBox="0 0 1000 1000" enable-background="new 0 0 1000 1000" xml:space="preserve">
<metadata> Svg Vector Icons : http://www.onlinewebfonts.com/icon </metadata>
<g><g><g><path d="M117.5,630.4l-33.1,12.9C34.8,664.4,9.1,686.4,10,705.7c2.8,28.5,34.9,49.6,93.7,65.2c76.2,20.2,153.3,24.8,233.2,12.9v-79.9l0,0l-63.4,23.9c-66.1,23-100.1,3.7-100.1,3.7c-10.1-6.4-14.7-22,12.9-32.1l34.9-12.9l115.7-41.3v-92.7l-29.4,10.1L117.5,630.4z"/><path d="M600.5,308.1v237.8c49.6,23.9,93.7,25.7,126.7,0.9c34-23.9,52.3-65.2,52.3-127.6c0-65.2-12.9-114.8-41.3-147.8c-25.7-34.9-71.6-64.3-139.6-87.2c-84.5-27.5-156.1-51.4-213-63.4v711.6l153.3,46.8V287.9C538,252.1,600.5,254.8,600.5,308.1z"/><path d="M989.8,675.4c-0.9-24.8-30.3-44.1-82.6-61.5c-58.8-19.3-109.3-28.5-164.4-26.6c-50.5,0.9-111.1,17.4-165.3,34.9V713l148.8-52.3c0,0,45-16.5,83.6-6.4c29.4,7.3,27.5,23.9-1.8,34L774,702l-196.5,70.7v92.7l91.8-33.1l220.4-78.1l25.7-11.9C968.7,723.1,992.5,702,989.8,675.4z"/></g></g><g></g><g></g><g></g><g></g><g></g><g></g><g></g><g></g><g></g><g></g><g></g><g></g><g></g><g></g><g></g></g>
</svg>